Patient4_TMGait_0pt6_02_left_38_GRF.mot
version=1
nRows=45
nColumns=19
inDegrees=no
endheader
time	F1x	F1y	F1z	M1x	M1y	M1z	F2x	F2y	F2z	M2x	M2y	M2z	EC1x	EC1y	EC1z	EC2x	EC2y	EC2z
46.38	-18.3739	3.1408	3.4166	-1.9957	-7.7975	9.4986	-16.5921	776.9064	-41.0569	283.0857	53.1406	821.3414	-0.0592	0.0182	-0.0073	-0.0462	0.0165	0.9585
46.3921	-12.1287	2.8028	2.3456	-1.6477	-5.2501	7.1093	-17.2986	788.5752	-43.8806	286.7342	55.7086	833.2481	-0.0592	0.0182	-0.0073	-0.0462	0.0165	0.9585
46.4043	-6.9336	2.5429	1.4206	-1.3469	-3.095	5.1477	-17.7249	799.5179	-46.2316	290.0347	57.7191	843.6446	-0.0592	0.0182	-0.0073	-0.0462	0.0165	0.9585
46.4164	-3.0457	2.3545	0.70241	-1.1164	-1.4561	3.6941	-17.7187	808.1714	-47.9838	292.4395	59.0198	850.8595	-0.0592	0.0182	-0.0073	-0.0462	0.0165	0.9585
46.4286	-0.41058	2.2432	0.20504	-0.96084	-0.34053	2.733	-17.1689	813.2775	-49.121	293.5162	59.5691	853.6505	-0.0592	0.0182	-0.0073	-0.0462	0.0165	0.9585
46.4407	1.1595	2.186	-0.10781	-0.86686	0.32818	2.165	-16.0492	814.0759	-49.7068	293.0164	59.4186	851.3696	-0.0592	0.0182	-0.0073	-0.0462	0.0165	0.9585
46.4529	1.9295	2.136	-0.25931	-0.80834	0.63726	1.8432	-14.3711	810.427	-49.7862	290.9191	58.6088	844.03	-0.0592	0.0182	-0.0073	-0.0462	0.0165	0.9585
46.465	2.1284	2.0449	-0.29473	-0.75677	0.69265	1.639	-12.199	802.7776	-49.4208	287.4149	57.213	832.2427	-0.0592	0.0182	-0.0073	-0.0462	0.0165	0.9585
46.4771	1.9816	1.8273	-0.23502	-0.67043	0.56981	1.3815	-9.6439	792.0004	-48.6611	282.8481	55.3078	817.0344	-0.0592	0.0182	-0.0073	-0.0462	0.0165	0.9585
46.4893	1.6215	1.4074	-0.11276	-0.50839	0.33347	0.94891	-6.8065	779.2139	-47.5955	277.6408	53.0096	799.6542	-0.0592	0.0182	-0.0073	-0.0462	0.0165	0.9585
46.5014	1.1995	0.68212	0.058487	-0.22653	0.027979	0.17716	-3.8137	765.5579	-46.321	272.2144	50.4522	781.3496	-0.0592	0.0182	-0.0073	-0.0462	0.0165	0.9585
46.5136	0.76004	-0.42074	0.25852	0.20773	-0.31447	-1.0167	-0.74496	752.0895	-44.9649	266.9501	47.7877	763.2444	-0.0592	0.0182	-0.0073	-0.0462	0.0165	0.9585
46.5257	0.40811	-1.9465	0.47036	0.81226	-0.64992	-2.7154	2.3324	739.7544	-43.6538	262.1788	45.1601	746.3333	-0.0592	0.0182	-0.0073	-0.0462	0.0165	0.9585
46.5379	0.17827	-3.8414	0.66612	1.5687	-0.92884	-4.8425	5.3954	729.3196	-42.52	258.1609	42.7045	731.4041	-0.0592	0.0182	-0.0073	-0.0462	0.0165	0.9585
46.55	0.1893	-5.9354	0.79957	2.4058	-1.0557	-7.2296	8.4544	721.3675	-41.6908	255.0835	40.5417	719.0454	-0.0592	0.0182	-0.0073	-0.0462	0.0165	0.9585
46.5621	0.50446	-7.835	0.81343	3.1649	-0.92732	-9.4049	11.543	716.2177	-41.2639	253.0368	38.7467	709.5653	-0.0592	0.0182	-0.0073	-0.0462	0.0165	0.9585
46.5743	1.2841	-8.8915	0.60437	3.5803	-0.36619	-10.6323	14.7225	713.8921	-41.3225	252.0019	37.3732	702.975	-0.0592	0.0182	-0.0073	-0.0462	0.0165	0.9585
46.5864	2.6267	-8.0912	0.058359	3.2444	0.81325	-9.7137	18.0518	714.0843	-41.8986	251.8447	36.4229	698.9554	-0.0592	0.0182	-0.0073	-0.0462	0.0165	0.9585
46.5986	4.6703	-4.0513	-0.98531	1.5956	2.8519	-5.0613	21.586	716.1901	-42.9973	252.3293	35.8752	696.8965	-0.0592	0.0182	-0.0073	-0.0462	0.0165	0.9585
46.6107	7.4292	4.9638	-2.6694	-2.0671	5.9363	5.3645	25.3223	719.3728	-44.5238	253.1458	35.638	695.988	-0.0592	0.0182	-0.0073	-0.0462	0.0165	0.9585
46.6229	10.821	20.8499	-5.1341	-8.5162	10.1877	23.7891	29.1986	722.5697	-46.342	253.9145	35.6045	695.2184	-0.0592	0.0182	-0.0073	-0.0462	0.0165	0.9585
46.635	14.4778	45.3538	-8.3949	-18.4564	15.4759	52.3045	33.0797	724.5753	-48.2184	254.2112	35.6069	693.4909	-0.0592	0.0182	-0.0073	-0.0462	0.0165	0.9585
46.6471	17.6974	79.4707	-12.3088	-32.281	21.3283	92.1217	36.7737	724.0482	-49.897	253.5735	35.4795	689.5912	-0.0592	0.0182	-0.0073	-0.0462	0.0165	0.9585
46.6593	19.2611	122.5448	-16.3934	-49.7012	26.673	142.5247	40.0204	719.6281	-51.0719	251.5387	35.0413	682.3243	-0.0592	0.0182	-0.0073	-0.0462	0.0165	0.9585
46.6714	17.5433	171.2059	-19.7583	-69.3245	29.7965	199.636	42.5676	710.0092	-51.4576	247.6734	34.1359	670.5233	-0.0592	0.0182	-0.0073	-0.0462	0.0165	0.9585
46.6836	11.6065	219.0011	-21.0231	-88.4994	28.7154	255.9706	44.1953	694.2271	-50.819	241.671	32.6408	653.3387	-0.0592	0.0182	-0.0073	-0.0462	0.0165	0.9585
46.6957	3.1676	258.7096	-18.6209	-104.2872	22.4009	303.0042	44.8751	671.9338	-49.0596	233.4484	30.5039	630.4422	-0.0592	0.0182	-0.0073	-0.0462	0.0165	0.9585
46.7079	-5.2969	287.311	-13.2767	-115.4974	12.7276	336.8923	44.73	643.6325	-46.2713	223.2099	27.7796	602.2695	-0.0592	0.0182	-0.0073	-0.0462	0.0165	0.9585
46.72	-12.3963	306.3938	-6.3234	-122.8041	1.7843	359.2397	44.053	610.415	-42.7493	211.3491	24.6356	569.7801	-0.0592	0.0182	-0.0073	-0.0462	0.0165	0.9585
46.7321	-17.6285	319.9156	1.4416	-127.8339	-9.2335	374.6327	43.1805	573.5481	-38.8545	198.3105	21.2724	534.0955	-0.0592	0.0182	-0.0073	-0.0462	0.0165	0.9585
46.7443	-21.0076	332.251	8.7754	-132.3988	-18.9673	388.1468	42.3361	534.2354	-34.7646	184.5144	17.7598	496.3062	-0.0592	0.0182	-0.0073	-0.0462	0.0165	0.9585
46.7564	-22.9848	346.7467	15.2675	-137.8714	-27.058	403.7857	41.6215	493.4119	-30.5288	170.29	14.1056	457.2818	-0.0592	0.0182	-0.0073	-0.0462	0.0165	0.9585
46.7686	-23.8234	365.2317	20.0883	-145.0379	-32.7547	423.5126	40.947	451.7847	-26.0398	155.8858	10.2427	417.7102	-0.0592	0.0182	-0.0073	-0.0462	0.0165	0.9585
46.7807	-23.8538	388.3773	23.4173	-154.1656	-36.3416	448.1696	40.1476	409.8325	-21.2541	141.4638	6.1937	378.0701	-0.0592	0.0182	-0.0073	-0.0462	0.0165	0.9585
46.7929	-23.1179	416.1571	25.1451	-165.2474	-37.8089	477.5962	38.9833	367.9808	-16.1982	127.1499	2.0583	338.8004	-0.0592	0.0182	-0.0073	-0.0462	0.0165	0.9585
46.805	-21.8473	447.9772	26.0735	-177.9857	-38.1023	511.2145	37.2896	326.5893	-11.1159	113.035	-1.8972	300.234	-0.0592	0.0182	-0.0073	-0.0462	0.0165	0.9585
46.8171	-20.123	482.5031	26.6514	-191.8224	-37.8169	547.442	34.9544	286.0893	-6.3141	99.2299	-5.3793	262.7484	-0.0592	0.0182	-0.0073	-0.0462	0.0165	0.9585
46.8293	-18.3257	518.3248	27.7577	-206.1281	-38.0362	584.7951	31.9734	246.9568	-2.1805	85.865	-8.0582	226.7289	-0.0592	0.0182	-0.0073	-0.0462	0.0165	0.9585
46.8414	-16.5937	554.4206	29.6386	-220.4818	-39.1253	622.028	28.398	209.7872	1.0138	73.124	-9.7241	192.6631	-0.0592	0.0182	-0.0073	-0.0462	0.0165	0.9585
46.8536	-15.1129	590.5416	32.4072	-234.7609	-41.2669	658.913	24.3436	175.2448	3.1142	61.2258	-10.29	161.1036	-0.0592	0.0182	-0.0073	-0.0462	0.0165	0.9585
46.8657	-13.7854	626.6232	35.738	-248.962	-44.0924	695.2935	20.0321	143.9237	4.1462	50.3807	-9.8479	132.527	-0.0592	0.0182	-0.0073	-0.0462	0.0165	0.9585
46.8779	-12.6063	662.4203	39.3548	-262.9948	-47.2884	730.9454	15.6804	116.2113	4.2856	40.7337	-8.6191	107.2608	-0.0592	0.0182	-0.0073	-0.0462	0.0165	0.9585
46.89	-11.4497	697.0813	43.0414	-276.5355	-50.5719	764.9331	11.562	92.1766	3.8004	32.33	-6.9153	85.3155	-0.0592	0.0182	-0.0073	-0.0462	0.0165	0.9585
46.9021	-10.3372	729.3416	46.6596	-289.0752	-53.7976	795.9863	7.8382	71.6603	2.9866	25.1316	-5.0428	66.5629	-0.0592	0.0182	-0.0073	-0.0462	0.0165	0.9585
46.9143	-9.2763	757.7727	50.2382	-300.0441	-56.9842	822.6581	4.6941	54.2896	2.1024	19.0309	-3.2795	50.6342	-0.0592	0.0182	-0.0073	-0.0462	0.0165	0.9585
